<svg xmlns="http://www.w3.org/2000/svg" viewBox="0 0 1600 820" aria-hidden="true">
  <defs>
    <linearGradient id="sky" x1="0" y1="0" x2="0" y2="1">
      <stop offset="0" stop-color="#5c513f" stop-opacity=".42"/>
      <stop offset=".48" stop-color="#242629" stop-opacity=".32"/>
      <stop offset="1" stop-color="#090b0d" stop-opacity=".88"/>
    </linearGradient>
    <radialGradient id="moon" cx="50%" cy="50%" r="50%">
      <stop offset="0" stop-color="#ead7ad" stop-opacity=".52"/>
      <stop offset=".52" stop-color="#c7a86b" stop-opacity=".18"/>
      <stop offset="1" stop-color="#c7a86b" stop-opacity="0"/>
    </radialGradient>
    <linearGradient id="fog" x1="0" y1="0" x2="1" y2="0">
      <stop offset="0" stop-color="#d7c7a8" stop-opacity="0"/>
      <stop offset=".5" stop-color="#d7c7a8" stop-opacity=".13"/>
      <stop offset="1" stop-color="#d7c7a8" stop-opacity="0"/>
    </linearGradient>
  </defs>
  <rect width="1600" height="820" fill="url(#sky)"/>
  <circle cx="1188" cy="178" r="132" fill="url(#moon)"/>
  <circle cx="1188" cy="178" r="58" fill="#d8c39a" opacity=".2"/>
  <path d="M0 560 180 438l104 74 174-182 146 118 174-212 154 170 152-124 180 176 140-96 200 170v288H0Z" fill="#111416" opacity=".72"/>
  <path d="M0 620 164 534l132 88 164-156 118 100 190-126 156 138 160-96 164 128 156-94 176 116v188H0Z" fill="#0b0e10" opacity=".9"/>
  <g fill="#0a0c0e" stroke="#29251f" stroke-width="2">
    <path d="M936 602h304V348h-46v-92h-62v92h-54v-140h-74v140h-68Z"/>
    <path d="m984 208 57-58 57 58Z"/>
    <path d="m1120 256 43-45 43 45Z"/>
    <path d="M888 602h68V432h-68Z"/>
    <path d="M1240 602h82V412h-82Z"/>
    <path d="M850 432h144l-72-76Z"/>
    <path d="m1210 412 71-74 71 74Z"/>
    <path d="M1044 602h78V478h-78Z"/>
  </g>
  <g fill="#c7a86b" opacity=".22">
    <rect x="1017" y="270" width="16" height="42" rx="8"/>
    <rect x="1148" y="306" width="14" height="34" rx="7"/>
    <rect x="1075" y="402" width="15" height="38" rx="7"/>
    <rect x="1267" y="468" width="14" height="32" rx="7"/>
  </g>
  <path d="M0 650c260-74 462-52 660 4 220 62 430 74 940-28v194H0Z" fill="#080a0c"/>
  <path d="M-100 620c340 80 534-54 836 18 286 68 492-20 964-78" fill="none" stroke="url(#fog)" stroke-width="52" stroke-linecap="round"/>
  <path d="M-80 704c300-48 518 38 774 0 330-48 520 44 1010-34" fill="none" stroke="url(#fog)" stroke-width="34" stroke-linecap="round" opacity=".7"/>
  <g fill="none" stroke="#c7a86b" opacity=".2">
    <path d="M1325 132h126M1388 69v126"/>
    <path d="m1388 88 17 28 28 17-28 17-17 28-17-28-28-17 28-17Z"/>
  </g>
</svg>
