<svg xmlns="http://www.w3.org/2000/svg" viewBox="0 0 64 64" role="img" aria-labelledby="title desc">
  <title id="title">Oteryn sigil</title>
  <desc id="desc">An original geometric Oteryn compass and citadel sigil.</desc>
  <g fill="none" stroke="currentColor" stroke-linecap="round" stroke-linejoin="round">
    <circle cx="32" cy="32" r="23" stroke-width="2" opacity=".72"/>
    <path d="M32 5 38 21 32 27 26 21 32 5Z" stroke-width="2.4"/>
    <path d="m32 59-6-16 6-6 6 6-6 16Z" stroke-width="2.4"/>
    <path d="M5 32 21 26 27 32 21 38 5 32Z" stroke-width="2" opacity=".78"/>
    <path d="m59 32-16 6-6-6 6-6 16 6Z" stroke-width="2" opacity=".78"/>
    <path d="M22 40V28l4-4 3 3 3-7 3 7 3-3 4 4v12" stroke-width="2.3"/>
    <path d="M18 40h28M25 40v-7h14v7M30 33v-4h4v4" stroke-width="2"/>
    <circle cx="32" cy="32" r="4" stroke-width="1.8"/>
  </g>
</svg>
